<mxfile host="app.diagrams.net" agent="Mozilla/5.0 (Windows NT 10.0; Win64; x64) AppleWebKit/537.36 (KHTML, like Gecko) Chrome/132.0.0.0 Safari/537.36" version="28.1.0">
  <diagram name="Page-1" id="EerB_JXxxN9LRpHmze5W">
    <mxGraphModel dx="786" dy="451" grid="1" gridSize="10" guides="1" tooltips="1" connect="1" arrows="1" fold="1" page="1" pageScale="1" pageWidth="827" pageHeight="1169" math="0" shadow="0">
      <root>
        <mxCell id="0" />
        <mxCell id="1" parent="0" />
        <mxCell id="-HQT8jkYKPKnA352YYOB-7" style="edgeStyle=orthogonalEdgeStyle;rounded=0;orthogonalLoop=1;jettySize=auto;html=1;exitX=1;exitY=0.5;exitDx=0;exitDy=0;entryX=0;entryY=0.5;entryDx=0;entryDy=0;" edge="1" parent="1" source="-HQT8jkYKPKnA352YYOB-1" target="-HQT8jkYKPKnA352YYOB-3">
          <mxGeometry relative="1" as="geometry" />
        </mxCell>
        <mxCell id="-HQT8jkYKPKnA352YYOB-1" value="CONTROLLER&amp;nbsp;" style="rounded=1;whiteSpace=wrap;html=1;" vertex="1" parent="1">
          <mxGeometry x="160" y="120" width="120" height="60" as="geometry" />
        </mxCell>
        <mxCell id="-HQT8jkYKPKnA352YYOB-6" style="edgeStyle=orthogonalEdgeStyle;rounded=0;orthogonalLoop=1;jettySize=auto;html=1;exitX=1;exitY=0.5;exitDx=0;exitDy=0;entryX=0;entryY=0.5;entryDx=0;entryDy=0;" edge="1" parent="1" source="-HQT8jkYKPKnA352YYOB-2" target="-HQT8jkYKPKnA352YYOB-1">
          <mxGeometry relative="1" as="geometry" />
        </mxCell>
        <mxCell id="-HQT8jkYKPKnA352YYOB-2" value="POWER SUPPLY&amp;nbsp;" style="rounded=0;whiteSpace=wrap;html=1;" vertex="1" parent="1">
          <mxGeometry x="50" y="135" width="70" height="30" as="geometry" />
        </mxCell>
        <mxCell id="-HQT8jkYKPKnA352YYOB-8" style="edgeStyle=orthogonalEdgeStyle;rounded=0;orthogonalLoop=1;jettySize=auto;html=1;exitX=1;exitY=0.5;exitDx=0;exitDy=0;entryX=0;entryY=0.5;entryDx=0;entryDy=0;" edge="1" parent="1" source="-HQT8jkYKPKnA352YYOB-3" target="-HQT8jkYKPKnA352YYOB-4">
          <mxGeometry relative="1" as="geometry" />
        </mxCell>
        <mxCell id="-HQT8jkYKPKnA352YYOB-3" value="RELAY&amp;nbsp;" style="rounded=1;whiteSpace=wrap;html=1;" vertex="1" parent="1">
          <mxGeometry x="320" y="75" width="120" height="60" as="geometry" />
        </mxCell>
        <mxCell id="-HQT8jkYKPKnA352YYOB-9" style="edgeStyle=orthogonalEdgeStyle;rounded=0;orthogonalLoop=1;jettySize=auto;html=1;exitX=0.5;exitY=1;exitDx=0;exitDy=0;entryX=0.5;entryY=0;entryDx=0;entryDy=0;" edge="1" parent="1" source="-HQT8jkYKPKnA352YYOB-4" target="-HQT8jkYKPKnA352YYOB-5">
          <mxGeometry relative="1" as="geometry" />
        </mxCell>
        <mxCell id="-HQT8jkYKPKnA352YYOB-4" value="SERVO MOTOR" style="rounded=1;whiteSpace=wrap;html=1;" vertex="1" parent="1">
          <mxGeometry x="480" y="75" width="120" height="60" as="geometry" />
        </mxCell>
        <mxCell id="-HQT8jkYKPKnA352YYOB-5" value="FOOD DISPENSED&amp;nbsp;" style="rounded=1;whiteSpace=wrap;html=1;" vertex="1" parent="1">
          <mxGeometry x="480" y="165" width="120" height="60" as="geometry" />
        </mxCell>
        <mxCell id="-HQT8jkYKPKnA352YYOB-16" style="edgeStyle=orthogonalEdgeStyle;rounded=0;orthogonalLoop=1;jettySize=auto;html=1;exitX=1;exitY=0;exitDx=0;exitDy=0;entryX=0.25;entryY=1;entryDx=0;entryDy=0;" edge="1" parent="1" source="-HQT8jkYKPKnA352YYOB-10" target="-HQT8jkYKPKnA352YYOB-1">
          <mxGeometry relative="1" as="geometry" />
        </mxCell>
        <mxCell id="-HQT8jkYKPKnA352YYOB-10" value="LOAD CELL" style="rounded=1;whiteSpace=wrap;html=1;" vertex="1" parent="1">
          <mxGeometry x="10" y="230" width="120" height="70" as="geometry" />
        </mxCell>
        <mxCell id="-HQT8jkYKPKnA352YYOB-13" style="edgeStyle=orthogonalEdgeStyle;rounded=0;orthogonalLoop=1;jettySize=auto;html=1;entryX=0.75;entryY=1;entryDx=0;entryDy=0;" edge="1" parent="1" source="-HQT8jkYKPKnA352YYOB-11" target="-HQT8jkYKPKnA352YYOB-1">
          <mxGeometry relative="1" as="geometry">
            <mxPoint x="250" y="220" as="targetPoint" />
          </mxGeometry>
        </mxCell>
        <mxCell id="-HQT8jkYKPKnA352YYOB-11" value="ULTRASONIC SENSOR&amp;nbsp;" style="rounded=1;whiteSpace=wrap;html=1;" vertex="1" parent="1">
          <mxGeometry x="190" y="240" width="120" height="60" as="geometry" />
        </mxCell>
        <mxCell id="-HQT8jkYKPKnA352YYOB-15" style="edgeStyle=orthogonalEdgeStyle;rounded=0;orthogonalLoop=1;jettySize=auto;html=1;exitX=0.5;exitY=1;exitDx=0;exitDy=0;entryX=0.5;entryY=0;entryDx=0;entryDy=0;" edge="1" parent="1" source="-HQT8jkYKPKnA352YYOB-14" target="-HQT8jkYKPKnA352YYOB-1">
          <mxGeometry relative="1" as="geometry" />
        </mxCell>
        <mxCell id="-HQT8jkYKPKnA352YYOB-14" value="ACTUATOR/ WEIGHT SENSOR&amp;nbsp;" style="rounded=1;whiteSpace=wrap;html=1;" vertex="1" parent="1">
          <mxGeometry x="160" y="40" width="120" height="60" as="geometry" />
        </mxCell>
      </root>
    </mxGraphModel>
  </diagram>
</mxfile>
